<svg id="Capa_1" enable-background="new 0 0 512 512" height="512" viewBox="0 0 512 512" width="512" xmlns="http://www.w3.org/2000/svg"><g><g><path d="m65.006 345.909h46.821v-158.479h-46.821c-20.193 0-36.563 16.37-36.563 36.563v85.354c.001 20.192 16.371 36.562 36.563 36.562z" fill="#465961"/></g><g><path d="m446.994 345.909h-46.821v-158.479h46.821c20.193 0 36.563 16.37 36.563 36.563v85.354c-.001 20.192-16.371 36.562-36.563 36.562z" fill="#465961"/></g><g><path d="m83.098 187.43v98.711c0 19.907-16.138 36.044-36.044 36.044h-5.725c-3.889 0-7.633-.612-11.149-1.735 4.717 14.764 18.543 25.458 34.872 25.458h46.776v-158.478z" fill="#394949"/></g><g><path d="m458.098 189.165c1.123 3.516 1.735 7.261 1.735 11.149v85.827c0 19.907-16.138 36.044-36.044 36.044h-23.616v23.723h46.776c20.218 0 36.607-16.39 36.607-36.607v-85.264c0-16.328-10.694-30.155-25.458-34.872z" fill="#394949"/></g><g><g><path d="m371.596 79.019c-2.985 3.471-8.168 3.99-11.78 1.177-29.58-23.039-66.132-35.641-103.816-35.641s-74.236 12.602-103.816 35.641c-3.612 2.813-8.794 2.295-11.78-1.177l-12.964-15.076c-3.192-3.712-2.643-9.34 1.206-12.367 36.205-28.479 81.081-44.067 127.354-44.067s91.149 15.588 127.355 44.067c3.848 3.027 4.398 8.655 1.206 12.367z" fill="#465961"/></g></g><g><g><path d="m383.354 51.576c-36.205-28.479-81.081-44.067-127.354-44.067-6.7 0-13.37.337-19.99.983 39.096 3.812 76.402 18.729 107.365 43.084 3.848 3.027 4.398 8.655 1.206 12.367l-3.227 3.753c6.399 3.744 12.571 7.911 18.463 12.5 3.612 2.814 8.794 2.295 11.78-1.176l12.964-15.076c3.191-3.713 2.642-9.341-1.207-12.368z" fill="#394949"/></g></g><g><g><g><path d="m393.577 136.119h-257.75c-16.02 0-29.006 12.986-29.006 29.006v221.565 82.424c0-19.538 15.839-35.377 35.377-35.377h20.852 230.527c6.408 0 11.602-5.195 11.602-11.602v-274.413c0-6.408-5.194-11.603-11.602-11.603z" fill="#d5b0ec"/></g></g><g><g><path d="m372.881 469.114c0-14.805 7.616-27.825 19.137-35.377h-249.82c-19.538 0-35.377 15.839-35.377 35.377 0 19.538 15.839 35.376 35.377 35.376h241c2.826 0 4.167-3.407 2.163-5.399-7.707-7.654-12.48-18.256-12.48-29.977z" fill="#eaeaea"/></g></g><g><g><path d="m393.577 136.119h-30.94v198.681c0 30.078-24.383 54.462-54.462 54.462h-187.668-13.686v79.853c0-19.538 15.839-35.377 35.377-35.377h20.852 230.527c6.408 0 11.602-5.195 11.602-11.602v-274.414c0-6.408-5.194-11.603-11.602-11.603z" fill="#bb80e0"/></g></g><g><g><path d="m372.881 469.114c0-14.805 7.616-27.825 19.137-35.377h-28.957c-11.522 7.552-19.138 20.572-19.138 35.377v.135c.022 7.004-5.498 12.753-12.502 12.753h-222.168c5.153 13.162 17.956 22.489 32.944 22.489h220.864 20.136c2.826 0 4.167-3.407 2.162-5.398-7.704-7.656-12.478-18.258-12.478-29.979z" fill="#c6d0da"/></g></g></g><g><path d="m295.979 244.054h-79.958c-4.147 0-7.509 3.362-7.509 7.509s3.362 7.509 7.509 7.509h79.958c4.147 0 7.509-3.362 7.509-7.509s-3.362-7.509-7.509-7.509z"/><path d="m295.979 283.466h-79.958c-4.147 0-7.509 3.362-7.509 7.509s3.362 7.509 7.509 7.509h79.958c4.147 0 7.509-3.362 7.509-7.509s-3.362-7.509-7.509-7.509z"/><path d="m448.15 179.952c-7.287-41.893-28.153-80.256-59.444-109.313l1.547-1.799c2.85-3.314 4.242-7.711 3.818-12.063-.424-4.353-2.638-8.399-6.075-11.102-37.443-29.454-84.32-45.675-131.996-45.675-22.107 0-43.997 3.416-65.064 10.154-3.95 1.263-6.128 5.49-4.865 9.44s5.491 6.126 9.44 4.865c19.585-6.264 39.937-9.44 60.489-9.44 44.323 0 87.903 15.08 122.713 42.461.303.238.391.541.411.753.021.211-.007.524-.257.815l-12.964 15.076c-.374.435-1.019.5-1.472.149-30.821-24.007-69.329-37.228-108.431-37.228s-77.61 13.221-108.43 37.226c-.451.351-1.099.286-1.472-.149l-12.964-15.076c-.25-.291-.278-.604-.257-.815.021-.212.109-.515.412-.754 9.475-7.453 19.696-14.077 30.379-19.687 3.672-1.928 5.085-6.468 3.157-10.139-1.929-3.672-6.468-5.086-10.139-3.157-11.494 6.036-22.49 13.162-32.682 21.179-3.437 2.704-5.651 6.75-6.075 11.103-.423 4.352.968 8.749 3.818 12.063l1.547 1.8c-31.291 29.057-52.157 67.419-59.444 109.312-23.771.641-42.915 20.163-42.915 44.086v85.264c0 24.326 19.791 44.117 44.117 44.117h4.407c4.147 0 7.509-3.362 7.509-7.509s-3.362-7.509-7.509-7.509h-4.407c-16.045 0-29.098-13.054-29.098-29.098v-85.264c0-16.045 13.054-29.098 29.098-29.098h34.26v274.175c0 23.647 19.238 42.886 42.886 42.886h241c4.322 0 8.177-2.576 9.82-6.562 1.657-4.017.728-8.599-2.365-11.673-6.617-6.575-10.262-15.329-10.262-24.651 0-11.067 5.219-21.352 14.054-27.912 10.134-.458 18.244-8.822 18.244-19.068v-68.717h34.26c11.784 0 22.863-4.589 31.195-12.922 2.933-2.932 2.933-7.687 0-10.619-2.932-2.932-7.687-2.932-10.619 0-5.496 5.496-12.803 8.523-20.576 8.523h-34.26v-143.46h34.26c16.045 0 29.098 13.054 29.098 29.098v75.574c0 4.147 3.362 7.509 7.509 7.509s7.509-3.362 7.509-7.509v-75.574c0-23.923-19.144-43.445-42.915-44.086zm-50.48 242.183c0 2.257-1.836 4.093-4.093 4.093h-251.379c-10.632 0-20.366 3.898-27.868 10.328v-271.431c0-11.853 9.644-21.497 21.497-21.497h257.749c2.257 0 4.093 1.836 4.093 4.093v274.414zm-23.78 74.847h-231.693c-15.366 0-27.867-12.501-27.867-27.867 0-15.367 12.501-27.868 27.868-27.868h231.692c-5.481 8.103-8.518 17.758-8.518 27.868 0 10.085 2.977 19.705 8.518 27.867zm19.686-368.372h-257.749c-20.135 0-36.515 16.381-36.515 36.515v14.795h-20.2c7.087-37.454 25.976-71.719 53.98-97.889l1.62 1.884c5.604 6.517 15.307 7.485 22.087 2.205 28.195-21.961 63.426-34.056 99.201-34.056s71.006 12.095 99.202 34.056c2.936 2.287 6.42 3.402 9.882 3.402 4.532 0 9.028-1.912 12.205-5.607l1.62-1.884c28.003 26.17 46.892 60.435 53.979 97.889h-20.2v-32.199c0-10.538-8.573-19.111-19.112-19.111z"/><path d="m227.34 458.768h-77.22c-4.147 0-7.509 3.362-7.509 7.509s3.362 7.509 7.509 7.509h77.22c4.147 0 7.509-3.362 7.509-7.509s-3.362-7.509-7.509-7.509z"/><path d="m283.033 458.768h-23.661c-4.147 0-7.509 3.362-7.509 7.509s3.362 7.509 7.509 7.509h23.661c4.147 0 7.509-3.362 7.509-7.509s-3.362-7.509-7.509-7.509z"/></g></g></svg>