<svg height="512pt" viewBox="0 0 512 512" width="512pt" xmlns="http://www.w3.org/2000/svg"><path d="m512 256c0 141.386719-114.613281 256-256 256s-256-114.613281-256-256 114.613281-256 256-256 256 114.613281 256 256zm0 0" fill="#ffce00"/><path d="m277.355469 511.105469c113.839843-9.402344 206.550781-93.277344 229.289062-202.800781l-188.96875-188.96875-223.96875 125.835937 120.757813 120.757813-32.726563 49.5625zm0 0" fill="#fcaf03"/><path d="m156.015625 365.316406c0-34.128906 27.667969-178.113281 61.796875-178.113281s61.792969 143.984375 61.792969 178.113281-27.664063 61.792969-61.792969 61.792969-61.796875-27.664063-61.796875-61.792969zm0 0" fill="#fff"/><path d="m217.8125 187.203125c-.105469 0-.207031.015625-.3125.019531v239.878906c.105469.003907.207031.007813.3125.007813 34.125 0 61.792969-27.664063 61.792969-61.792969s-27.667969-178.113281-61.792969-178.113281zm0 0" fill="#e9edf5"/><path d="m354.730469 205.378906c0 75.613282-61.300781 38.335938-136.917969 38.335938s-136.917969 37.277344-136.917969-38.335938c0-75.617187 61.300781-120.675781 136.917969-120.675781s136.917969 45.058594 136.917969 120.675781zm0 0" fill="#966857"/><path d="m217.8125 84.703125c-.105469 0-.207031.003906-.3125.003906v159.007813h.3125c75.617188 0 136.914062 37.28125 136.914062-38.335938.003907-75.617187-61.296874-120.675781-136.914062-120.675781zm0 0" fill="#805142"/><path d="m299.726562 384.671875c0-23.441406 19-122.328125 42.4375-122.328125 23.441407 0 42.441407 98.886719 42.441407 122.328125 0 23.4375-19 42.4375-42.441407 42.4375-23.4375 0-42.4375-19-42.4375-42.4375zm0 0" fill="#fff"/><path d="m342.164062 262.34375c-.085937 0-.171874.015625-.257812.015625v164.746094c.085938 0 .171875.003906.257812.003906 23.441407 0 42.441407-19 42.441407-42.4375 0-23.441406-19-122.328125-42.441407-122.328125zm0 0" fill="#e9edf5"/><path d="m436.199219 274.824219c0 51.933593-42.101563 26.332031-94.035157 26.332031-51.929687 0-94.03125 25.601562-94.03125-26.332031 0-51.933594 42.101563-82.878907 94.03125-82.878907 51.933594 0 94.035157 30.945313 94.035157 82.878907zm0 0" fill="#b2876d"/><path d="m342.164062 191.945312c-.085937 0-.171874.003907-.257812.003907v109.207031c.085938 0 .171875-.003906.257812-.003906 51.9375 0 94.035157 25.605468 94.035157-26.328125 0-51.933594-42.101563-82.878907-94.035157-82.878907zm0 0" fill="#966857"/></svg>